<svg xmlns="http://www.w3.org/2000/svg" viewBox="0 0 64 64" shape-rendering="crispEdges">
  <rect width="64" height="64" fill="none"/>
  <rect x="18" y="6" width="4" height="4" fill="#d7edf3"/>
  <rect x="42" y="6" width="4" height="4" fill="#d7edf3"/>
  <rect x="14" y="10" width="4" height="4" fill="#d7edf3"/>
  <rect x="46" y="10" width="4" height="4" fill="#d7edf3"/>
  <rect x="12" y="14" width="4" height="6" fill="#d7edf3"/>
  <rect x="48" y="14" width="4" height="6" fill="#d7edf3"/>
  <rect x="16" y="22" width="32" height="6" fill="#c7dde4"/>
  <rect x="14" y="28" width="36" height="4" fill="#89d9f6"/>
  <rect x="12" y="32" width="40" height="18" fill="#9aacb5"/>
  <rect x="8" y="34" width="4" height="12" fill="#ff8eb1"/>
  <rect x="52" y="34" width="4" height="12" fill="#ff8eb1"/>
  <rect x="4" y="38" width="4" height="4" fill="#ff6f9e"/>
  <rect x="56" y="38" width="4" height="4" fill="#ff6f9e"/>
  <rect x="20" y="36" width="4" height="4" fill="#243748"/>
  <rect x="40" y="36" width="4" height="4" fill="#243748"/>
  <rect x="26" y="44" width="12" height="2" fill="#243748"/>
  <rect x="16" y="22" width="32" height="2" fill="#5c6d73"/>
  <rect x="12" y="32" width="2" height="18" fill="#5c6d73"/>
  <rect x="50" y="32" width="2" height="18" fill="#5c6d73"/>
  <rect x="14" y="50" width="36" height="2" fill="#5c6d73"/>
  <rect x="18" y="28" width="28" height="2" fill="#d7f9ff"/>
</svg>
