<svg xmlns="http://www.w3.org/2000/svg" viewBox="0 0 64 64" shape-rendering="crispEdges">
  <rect width="64" height="64" fill="none"/>
  <rect x="10" y="10" width="44" height="12" fill="#9ced4c"/>
  <rect x="6" y="14" width="8" height="8" fill="#7bd43f"/>
  <rect x="50" y="14" width="8" height="8" fill="#76cf3c"/>
  <rect x="8" y="22" width="48" height="28" fill="#87542d"/>
  <rect x="8" y="22" width="48" height="4" fill="#6cbe38"/>
  <rect x="12" y="28" width="8" height="8" fill="#986339"/>
  <rect x="22" y="32" width="10" height="6" fill="#714520"/>
  <rect x="36" y="28" width="8" height="8" fill="#9d673b"/>
  <rect x="46" y="34" width="6" height="10" fill="#6d4120"/>
  <rect x="16" y="40" width="10" height="6" fill="#764923"/>
  <rect x="30" y="42" width="8" height="6" fill="#a66e40"/>
  <rect x="40" y="40" width="10" height="6" fill="#80502b"/>
  <rect x="6" y="22" width="2" height="30" fill="#4f2f18"/>
  <rect x="56" y="22" width="2" height="30" fill="#4f2f18"/>
  <rect x="8" y="50" width="48" height="2" fill="#4f2f18"/>
  <rect x="12" y="10" width="6" height="4" fill="#ccff87"/>
  <rect x="26" y="12" width="10" height="4" fill="#c8ff7e"/>
  <rect x="42" y="10" width="8" height="4" fill="#b7ff72"/>
</svg>
