<svg xmlns="http://www.w3.org/2000/svg" viewBox="0 0 64 64" shape-rendering="crispEdges">
  <rect width="64" height="64" fill="none"/>
  <rect x="18" y="10" width="28" height="4" fill="#7c818c"/>
  <rect x="14" y="14" width="36" height="4" fill="#666a75"/>
  <rect x="10" y="18" width="44" height="24" fill="#51545e"/>
  <rect x="14" y="42" width="36" height="8" fill="#383b44"/>
  <rect x="18" y="50" width="28" height="4" fill="#2b2d35"/>
  <rect x="22" y="20" width="4" height="4" fill="#7b7f8a"/>
  <rect x="38" y="28" width="4" height="4" fill="#777b86"/>
  <rect x="26" y="38" width="4" height="4" fill="#727680"/>
  <rect x="30" y="20" width="4" height="24" fill="#95ff65"/>
  <rect x="26" y="24" width="4" height="4" fill="#95ff65"/>
  <rect x="34" y="32" width="4" height="4" fill="#95ff65"/>
  <rect x="8" y="18" width="2" height="24" fill="#262930"/>
  <rect x="54" y="18" width="2" height="24" fill="#262930"/>
  <rect x="14" y="12" width="4" height="2" fill="#9ca1aa"/>
  <rect x="42" y="12" width="4" height="2" fill="#9ca1aa"/>
  <rect x="18" y="54" width="28" height="2" fill="#1f2026"/>
</svg>
