<svg xmlns="http://www.w3.org/2000/svg" viewBox="0 0 64 64" shape-rendering="crispEdges">
  <rect width="64" height="64" fill="none"/>
  <rect x="28" y="4" width="8" height="8" fill="#d6f8ff"/>
  <rect x="24" y="12" width="16" height="8" fill="#aeeaff"/>
  <rect x="24" y="20" width="16" height="8" fill="#74d2ff"/>
  <rect x="20" y="28" width="24" height="8" fill="#4ea6dd"/>
  <rect x="20" y="36" width="24" height="8" fill="#2c6fa0"/>
  <rect x="16" y="44" width="32" height="6" fill="#ffc94f"/>
  <rect x="12" y="48" width="40" height="4" fill="#8f4d12"/>
  <rect x="24" y="52" width="16" height="6" fill="#7a4a23"/>
  <rect x="26" y="58" width="12" height="4" fill="#e6b860"/>
  <rect x="24" y="2" width="16" height="2" fill="#4a6076"/>
  <rect x="20" y="10" width="4" height="18" fill="#4a6076"/>
  <rect x="40" y="10" width="4" height="18" fill="#4a6076"/>
  <rect x="16" y="42" width="32" height="2" fill="#59330d"/>
  <rect x="8" y="46" width="4" height="6" fill="#59330d"/>
  <rect x="52" y="46" width="4" height="6" fill="#59330d"/>
  <rect x="22" y="52" width="2" height="6" fill="#4c2d12"/>
  <rect x="40" y="52" width="2" height="6" fill="#4c2d12"/>
  <rect x="24" y="60" width="16" height="2" fill="#6a3f17"/>
</svg>
